<?xml version="1.0" standalone="no"?>
<!DOCTYPE svg PUBLIC "-//W3C//DTD SVG 20010904//EN"
 "http://www.w3.org/TR/2001/REC-SVG-20010904/DTD/svg10.dtd">
<svg version="1.0" xmlns="http://www.w3.org/2000/svg"
 width="500.000000pt" height="500.000000pt" viewBox="0 0 500.000000 500.000000"
 preserveAspectRatio="xMidYMid meet">

<g transform="translate(0.000000,500.000000) scale(0.100000,-0.100000)"
fill="#000000" stroke="none">
<path d="M1847 4370 c-196 -33 -356 -154 -440 -332 -205 -433 -1095 -2371
-1115 -2428 -23 -66 -26 -91 -26 -205 0 -144 13 -212 64 -319 41 -85 122 -188
191 -244 60 -48 145 -100 152 -92 3 3 280 601 617 1330 337 729 621 1342 631
1362 31 61 112 134 196 175 l77 38 1075 5 c1207 6 1106 0 1276 84 150 74 289
223 343 369 24 62 52 192 52 237 l0 30 -1522 -1 c-838 -1 -1545 -5 -1571 -9z"/>
<path d="M2250 2937 c-175 -59 -310 -212 -378 -427 -21 -67 -42 -185 -42 -239
l0 -31 873 0 c522 0 896 4 932 10 87 14 175 61 248 134 127 124 201 294 222
509 l7 67 -899 0 -898 -1 -65 -22z"/>
</g>
</svg>
